<svg xmlns="http://www.w3.org/2000/svg" viewBox="0 0 562 562" width="600" height="600">
<defs>
  <linearGradient id="gld" x1="0" y1="0" x2="1" y2="1">
    <stop offset="0%" stop-color="#F0C060"/>
    <stop offset="100%" stop-color="#DEA752"/>
  </linearGradient>
</defs>
<rect x="56.3" y="56.3" width="85.4" height="85.4" rx="19.599999999999998" fill="none" stroke="#FFFFFF" stroke-width="12.6"/>
<rect x="78" y="78" width="42" height="42" rx="9.799999999999999" fill="url(#gld)"/>
<rect x="420.3" y="56.3" width="85.4" height="85.4" rx="19.599999999999998" fill="none" stroke="#FFFFFF" stroke-width="12.6"/>
<rect x="442" y="78" width="42" height="42" rx="9.799999999999999" fill="url(#gld)"/>
<rect x="56.3" y="420.3" width="85.4" height="85.4" rx="19.599999999999998" fill="none" stroke="#FFFFFF" stroke-width="12.6"/>
<rect x="78" y="442" width="42" height="42" rx="9.799999999999999" fill="url(#gld)"/>
<rect x="176.75" y="50.75" width="12.5" height="12.5" rx="3" fill="#FFFFFF"/>
<rect x="204.75" y="50.75" width="12.5" height="12.5" rx="3" fill="#FFFFFF"/>
<rect x="232.75" y="50.75" width="12.5" height="12.5" rx="3" fill="#FFFFFF"/>
<rect x="274.75" y="50.75" width="12.5" height="12.5" rx="3" fill="#FFFFFF"/>
<rect x="316.75" y="50.75" width="12.5" height="12.5" rx="3" fill="#FFFFFF"/>
<rect x="330.75" y="50.75" width="12.5" height="12.5" rx="3" fill="#FFFFFF"/>
<rect x="358.75" y="50.75" width="12.5" height="12.5" rx="3" fill="#FFFFFF"/>
<rect x="386.75" y="50.75" width="12.5" height="12.5" rx="3" fill="#FFFFFF"/>
<rect x="162.75" y="64.75" width="12.5" height="12.5" rx="3" fill="#FFFFFF"/>
<rect x="204.75" y="64.75" width="12.5" height="12.5" rx="3" fill="#FFFFFF"/>
<rect x="218.75" y="64.75" width="12.5" height="12.5" rx="3" fill="#FFFFFF"/>
<rect x="246.75" y="64.75" width="12.5" height="12.5" rx="3" fill="#FFFFFF"/>
<rect x="260.75" y="64.75" width="12.5" height="12.5" rx="3" fill="#FFFFFF"/>
<rect x="274.75" y="64.75" width="12.5" height="12.5" rx="3" fill="#FFFFFF"/>
<rect x="288.75" y="64.75" width="12.5" height="12.5" rx="3" fill="#FFFFFF"/>
<rect x="302.75" y="64.75" width="12.5" height="12.5" rx="3" fill="#FFFFFF"/>
<rect x="316.75" y="64.75" width="12.5" height="12.5" rx="3" fill="#FFFFFF"/>
<rect x="344.75" y="64.75" width="12.5" height="12.5" rx="3" fill="#FFFFFF"/>
<rect x="358.75" y="64.75" width="12.5" height="12.5" rx="3" fill="#FFFFFF"/>
<rect x="162.75" y="78.75" width="12.5" height="12.5" rx="3" fill="#FFFFFF"/>
<rect x="176.75" y="78.75" width="12.5" height="12.5" rx="3" fill="#FFFFFF"/>
<rect x="190.75" y="78.75" width="12.5" height="12.5" rx="3" fill="#FFFFFF"/>
<rect x="218.75" y="78.75" width="12.5" height="12.5" rx="3" fill="#FFFFFF"/>
<rect x="246.75" y="78.75" width="12.5" height="12.5" rx="3" fill="#FFFFFF"/>
<rect x="260.75" y="78.75" width="12.5" height="12.5" rx="3" fill="#FFFFFF"/>
<rect x="316.75" y="78.75" width="12.5" height="12.5" rx="3" fill="#FFFFFF"/>
<rect x="330.75" y="78.75" width="12.5" height="12.5" rx="3" fill="#FFFFFF"/>
<rect x="344.75" y="78.75" width="12.5" height="12.5" rx="3" fill="#FFFFFF"/>
<rect x="386.75" y="78.75" width="12.5" height="12.5" rx="3" fill="#FFFFFF"/>
<rect x="162.75" y="92.75" width="12.5" height="12.5" rx="3" fill="#FFFFFF"/>
<rect x="190.75" y="92.75" width="12.5" height="12.5" rx="3" fill="#FFFFFF"/>
<rect x="260.75" y="92.75" width="12.5" height="12.5" rx="3" fill="#FFFFFF"/>
<rect x="274.75" y="92.75" width="12.5" height="12.5" rx="3" fill="#FFFFFF"/>
<rect x="344.75" y="92.75" width="12.5" height="12.5" rx="3" fill="#FFFFFF"/>
<rect x="358.75" y="92.75" width="12.5" height="12.5" rx="3" fill="#FFFFFF"/>
<rect x="372.75" y="92.75" width="12.5" height="12.5" rx="3" fill="#FFFFFF"/>
<rect x="162.75" y="106.75" width="12.5" height="12.5" rx="3" fill="#FFFFFF"/>
<rect x="204.75" y="106.75" width="12.5" height="12.5" rx="3" fill="#FFFFFF"/>
<rect x="218.75" y="106.75" width="12.5" height="12.5" rx="3" fill="#FFFFFF"/>
<rect x="330.75" y="106.75" width="12.5" height="12.5" rx="3" fill="#FFFFFF"/>
<rect x="358.75" y="106.75" width="12.5" height="12.5" rx="3" fill="#FFFFFF"/>
<rect x="372.75" y="106.75" width="12.5" height="12.5" rx="3" fill="#FFFFFF"/>
<rect x="162.75" y="120.75" width="12.5" height="12.5" rx="3" fill="#FFFFFF"/>
<rect x="190.75" y="120.75" width="12.5" height="12.5" rx="3" fill="#FFFFFF"/>
<rect x="218.75" y="120.75" width="12.5" height="12.5" rx="3" fill="#FFFFFF"/>
<rect x="302.75" y="120.75" width="12.5" height="12.5" rx="3" fill="#FFFFFF"/>
<rect x="344.75" y="120.75" width="12.5" height="12.5" rx="3" fill="#FFFFFF"/>
<rect x="358.75" y="120.75" width="12.5" height="12.5" rx="3" fill="#FFFFFF"/>
<rect x="372.75" y="120.75" width="12.5" height="12.5" rx="3" fill="#FFFFFF"/>
<rect x="162.75" y="134.75" width="12.5" height="12.5" rx="3" fill="#FFFFFF"/>
<rect x="190.75" y="134.75" width="12.5" height="12.5" rx="3" fill="#FFFFFF"/>
<rect x="218.75" y="134.75" width="12.5" height="12.5" rx="3" fill="#FFFFFF"/>
<rect x="246.75" y="134.75" width="12.5" height="12.5" rx="3" fill="#FFFFFF"/>
<rect x="274.75" y="134.75" width="12.5" height="12.5" rx="3" fill="#FFFFFF"/>
<rect x="302.75" y="134.75" width="12.5" height="12.5" rx="3" fill="#FFFFFF"/>
<rect x="330.75" y="134.75" width="12.5" height="12.5" rx="3" fill="#FFFFFF"/>
<rect x="358.75" y="134.75" width="12.5" height="12.5" rx="3" fill="#FFFFFF"/>
<rect x="386.75" y="134.75" width="12.5" height="12.5" rx="3" fill="#FFFFFF"/>
<rect x="190.75" y="148.75" width="12.5" height="12.5" rx="3" fill="#FFFFFF"/>
<rect x="218.75" y="148.75" width="12.5" height="12.5" rx="3" fill="#FFFFFF"/>
<rect x="232.75" y="148.75" width="12.5" height="12.5" rx="3" fill="#FFFFFF"/>
<rect x="246.75" y="148.75" width="12.5" height="12.5" rx="3" fill="#FFFFFF"/>
<rect x="260.75" y="148.75" width="12.5" height="12.5" rx="3" fill="#FFFFFF"/>
<rect x="274.75" y="148.75" width="12.5" height="12.5" rx="3" fill="#FFFFFF"/>
<rect x="330.75" y="148.75" width="12.5" height="12.5" rx="3" fill="#FFFFFF"/>
<rect x="372.75" y="148.75" width="12.5" height="12.5" rx="3" fill="#FFFFFF"/>
<rect x="386.75" y="148.75" width="12.5" height="12.5" rx="3" fill="#FFFFFF"/>
<rect x="78.75" y="162.75" width="12.5" height="12.5" rx="3" fill="#FFFFFF"/>
<rect x="120.75" y="162.75" width="12.5" height="12.5" rx="3" fill="#FFFFFF"/>
<rect x="134.75" y="162.75" width="12.5" height="12.5" rx="3" fill="#FFFFFF"/>
<rect x="148.75" y="162.75" width="12.5" height="12.5" rx="3" fill="#FFFFFF"/>
<rect x="162.75" y="162.75" width="12.5" height="12.5" rx="3" fill="#FFFFFF"/>
<rect x="218.75" y="162.75" width="12.5" height="12.5" rx="3" fill="#FFFFFF"/>
<rect x="232.75" y="162.75" width="12.5" height="12.5" rx="3" fill="#FFFFFF"/>
<rect x="316.75" y="162.75" width="12.5" height="12.5" rx="3" fill="#FFFFFF"/>
<rect x="330.75" y="162.75" width="12.5" height="12.5" rx="3" fill="#FFFFFF"/>
<rect x="386.75" y="162.75" width="12.5" height="12.5" rx="3" fill="#FFFFFF"/>
<rect x="400.75" y="162.75" width="12.5" height="12.5" rx="3" fill="#FFFFFF"/>
<rect x="428.75" y="162.75" width="12.5" height="12.5" rx="3" fill="#FFFFFF"/>
<rect x="442.75" y="162.75" width="12.5" height="12.5" rx="3" fill="#FFFFFF"/>
<rect x="456.75" y="162.75" width="12.5" height="12.5" rx="3" fill="#FFFFFF"/>
<rect x="470.75" y="162.75" width="12.5" height="12.5" rx="3" fill="#FFFFFF"/>
<rect x="484.75" y="162.75" width="12.5" height="12.5" rx="3" fill="#FFFFFF"/>
<rect x="50.75" y="176.75" width="12.5" height="12.5" rx="3" fill="#FFFFFF"/>
<rect x="64.75" y="176.75" width="12.5" height="12.5" rx="3" fill="#FFFFFF"/>
<rect x="78.75" y="176.75" width="12.5" height="12.5" rx="3" fill="#FFFFFF"/>
<rect x="92.75" y="176.75" width="12.5" height="12.5" rx="3" fill="#FFFFFF"/>
<rect x="120.75" y="176.75" width="12.5" height="12.5" rx="3" fill="#FFFFFF"/>
<rect x="176.75" y="176.75" width="12.5" height="12.5" rx="3" fill="#FFFFFF"/>
<rect x="190.75" y="176.75" width="12.5" height="12.5" rx="3" fill="#FFFFFF"/>
<rect x="204.75" y="176.75" width="12.5" height="12.5" rx="3" fill="#FFFFFF"/>
<rect x="218.75" y="176.75" width="12.5" height="12.5" rx="3" fill="#FFFFFF"/>
<rect x="232.75" y="176.75" width="12.5" height="12.5" rx="3" fill="#FFFFFF"/>
<rect x="246.75" y="176.75" width="12.5" height="12.5" rx="3" fill="#FFFFFF"/>
<rect x="260.75" y="176.75" width="12.5" height="12.5" rx="3" fill="#FFFFFF"/>
<rect x="288.75" y="176.75" width="12.5" height="12.5" rx="3" fill="#FFFFFF"/>
<rect x="372.75" y="176.75" width="12.5" height="12.5" rx="3" fill="#FFFFFF"/>
<rect x="400.75" y="176.75" width="12.5" height="12.5" rx="3" fill="#FFFFFF"/>
<rect x="414.75" y="176.75" width="12.5" height="12.5" rx="3" fill="#FFFFFF"/>
<rect x="428.75" y="176.75" width="12.5" height="12.5" rx="3" fill="#FFFFFF"/>
<rect x="470.75" y="176.75" width="12.5" height="12.5" rx="3" fill="#FFFFFF"/>
<rect x="484.75" y="176.75" width="12.5" height="12.5" rx="3" fill="#FFFFFF"/>
<rect x="498.75" y="176.75" width="12.5" height="12.5" rx="3" fill="#FFFFFF"/>
<rect x="50.75" y="190.75" width="12.5" height="12.5" rx="3" fill="#FFFFFF"/>
<rect x="64.75" y="190.75" width="12.5" height="12.5" rx="3" fill="#FFFFFF"/>
<rect x="92.75" y="190.75" width="12.5" height="12.5" rx="3" fill="#FFFFFF"/>
<rect x="106.75" y="190.75" width="12.5" height="12.5" rx="3" fill="#FFFFFF"/>
<rect x="120.75" y="190.75" width="12.5" height="12.5" rx="3" fill="#FFFFFF"/>
<rect x="134.75" y="190.75" width="12.5" height="12.5" rx="3" fill="#FFFFFF"/>
<rect x="148.75" y="190.75" width="12.5" height="12.5" rx="3" fill="#FFFFFF"/>
<rect x="162.75" y="190.75" width="12.5" height="12.5" rx="3" fill="#FFFFFF"/>
<rect x="190.75" y="190.75" width="12.5" height="12.5" rx="3" fill="#FFFFFF"/>
<rect x="204.75" y="190.75" width="12.5" height="12.5" rx="3" fill="#FFFFFF"/>
<rect x="218.75" y="190.75" width="12.5" height="12.5" rx="3" fill="#FFFFFF"/>
<rect x="316.75" y="190.75" width="12.5" height="12.5" rx="3" fill="#FFFFFF"/>
<rect x="344.75" y="190.75" width="12.5" height="12.5" rx="3" fill="#FFFFFF"/>
<rect x="358.75" y="190.75" width="12.5" height="12.5" rx="3" fill="#FFFFFF"/>
<rect x="372.75" y="190.75" width="12.5" height="12.5" rx="3" fill="#FFFFFF"/>
<rect x="386.75" y="190.75" width="12.5" height="12.5" rx="3" fill="#FFFFFF"/>
<rect x="428.75" y="190.75" width="12.5" height="12.5" rx="3" fill="#FFFFFF"/>
<rect x="442.75" y="190.75" width="12.5" height="12.5" rx="3" fill="#FFFFFF"/>
<rect x="470.75" y="190.75" width="12.5" height="12.5" rx="3" fill="#FFFFFF"/>
<rect x="498.75" y="190.75" width="12.5" height="12.5" rx="3" fill="#FFFFFF"/>
<rect x="78.75" y="204.75" width="12.5" height="12.5" rx="3" fill="#FFFFFF"/>
<rect x="92.75" y="204.75" width="12.5" height="12.5" rx="3" fill="#FFFFFF"/>
<rect x="106.75" y="204.75" width="12.5" height="12.5" rx="3" fill="#FFFFFF"/>
<rect x="120.75" y="204.75" width="12.5" height="12.5" rx="3" fill="#FFFFFF"/>
<rect x="176.75" y="204.75" width="12.5" height="12.5" rx="3" fill="#FFFFFF"/>
<rect x="218.75" y="204.75" width="12.5" height="12.5" rx="3" fill="#FFFFFF"/>
<rect x="274.75" y="204.75" width="12.5" height="12.5" rx="3" fill="#FFFFFF"/>
<rect x="302.75" y="204.75" width="12.5" height="12.5" rx="3" fill="#FFFFFF"/>
<rect x="330.75" y="204.75" width="12.5" height="12.5" rx="3" fill="#FFFFFF"/>
<rect x="358.75" y="204.75" width="12.5" height="12.5" rx="3" fill="#FFFFFF"/>
<rect x="414.75" y="204.75" width="12.5" height="12.5" rx="3" fill="#FFFFFF"/>
<rect x="428.75" y="204.75" width="12.5" height="12.5" rx="3" fill="#FFFFFF"/>
<rect x="456.75" y="204.75" width="12.5" height="12.5" rx="3" fill="#FFFFFF"/>
<rect x="484.75" y="204.75" width="12.5" height="12.5" rx="3" fill="#FFFFFF"/>
<rect x="498.75" y="204.75" width="12.5" height="12.5" rx="3" fill="#FFFFFF"/>
<rect x="64.75" y="218.75" width="12.5" height="12.5" rx="3" fill="#FFFFFF"/>
<rect x="92.75" y="218.75" width="12.5" height="12.5" rx="3" fill="#FFFFFF"/>
<rect x="106.75" y="218.75" width="12.5" height="12.5" rx="3" fill="#FFFFFF"/>
<rect x="120.75" y="218.75" width="12.5" height="12.5" rx="3" fill="#FFFFFF"/>
<rect x="134.75" y="218.75" width="12.5" height="12.5" rx="3" fill="#FFFFFF"/>
<rect x="162.75" y="218.75" width="12.5" height="12.5" rx="3" fill="#FFFFFF"/>
<rect x="232.75" y="218.75" width="12.5" height="12.5" rx="3" fill="#FFFFFF"/>
<rect x="246.75" y="218.75" width="12.5" height="12.5" rx="3" fill="#FFFFFF"/>
<rect x="274.75" y="218.75" width="12.5" height="12.5" rx="3" fill="#FFFFFF"/>
<rect x="288.75" y="218.75" width="12.5" height="12.5" rx="3" fill="#FFFFFF"/>
<rect x="302.75" y="218.75" width="12.5" height="12.5" rx="3" fill="#FFFFFF"/>
<rect x="316.75" y="218.75" width="12.5" height="12.5" rx="3" fill="#FFFFFF"/>
<rect x="330.75" y="218.75" width="12.5" height="12.5" rx="3" fill="#FFFFFF"/>
<rect x="344.75" y="218.75" width="12.5" height="12.5" rx="3" fill="#FFFFFF"/>
<rect x="358.75" y="218.75" width="12.5" height="12.5" rx="3" fill="#FFFFFF"/>
<rect x="372.75" y="218.75" width="12.5" height="12.5" rx="3" fill="#FFFFFF"/>
<rect x="386.75" y="218.75" width="12.5" height="12.5" rx="3" fill="#FFFFFF"/>
<rect x="414.75" y="218.75" width="12.5" height="12.5" rx="3" fill="#FFFFFF"/>
<rect x="442.75" y="218.75" width="12.5" height="12.5" rx="3" fill="#FFFFFF"/>
<rect x="498.75" y="218.75" width="12.5" height="12.5" rx="3" fill="#FFFFFF"/>
<rect x="50.75" y="232.75" width="12.5" height="12.5" rx="3" fill="#FFFFFF"/>
<rect x="64.75" y="232.75" width="12.5" height="12.5" rx="3" fill="#FFFFFF"/>
<rect x="78.75" y="232.75" width="12.5" height="12.5" rx="3" fill="#FFFFFF"/>
<rect x="106.75" y="232.75" width="12.5" height="12.5" rx="3" fill="#FFFFFF"/>
<rect x="148.75" y="232.75" width="12.5" height="12.5" rx="3" fill="#FFFFFF"/>
<rect x="162.75" y="232.75" width="12.5" height="12.5" rx="3" fill="#FFFFFF"/>
<rect x="176.75" y="232.75" width="12.5" height="12.5" rx="3" fill="#FFFFFF"/>
<rect x="218.75" y="232.75" width="12.5" height="12.5" rx="3" fill="#FFFFFF"/>
<rect x="344.75" y="232.75" width="12.5" height="12.5" rx="3" fill="#FFFFFF"/>
<rect x="358.75" y="232.75" width="12.5" height="12.5" rx="3" fill="#FFFFFF"/>
<rect x="372.75" y="232.75" width="12.5" height="12.5" rx="3" fill="#FFFFFF"/>
<rect x="386.75" y="232.75" width="12.5" height="12.5" rx="3" fill="#FFFFFF"/>
<rect x="400.75" y="232.75" width="12.5" height="12.5" rx="3" fill="#FFFFFF"/>
<rect x="414.75" y="232.75" width="12.5" height="12.5" rx="3" fill="#FFFFFF"/>
<rect x="456.75" y="232.75" width="12.5" height="12.5" rx="3" fill="#FFFFFF"/>
<rect x="470.75" y="232.75" width="12.5" height="12.5" rx="3" fill="#FFFFFF"/>
<rect x="498.75" y="232.75" width="12.5" height="12.5" rx="3" fill="#FFFFFF"/>
<rect x="50.75" y="246.75" width="12.5" height="12.5" rx="3" fill="#FFFFFF"/>
<rect x="92.75" y="246.75" width="12.5" height="12.5" rx="3" fill="#FFFFFF"/>
<rect x="106.75" y="246.75" width="12.5" height="12.5" rx="3" fill="#FFFFFF"/>
<rect x="120.75" y="246.75" width="12.5" height="12.5" rx="3" fill="#FFFFFF"/>
<rect x="134.75" y="246.75" width="12.5" height="12.5" rx="3" fill="#FFFFFF"/>
<rect x="162.75" y="246.75" width="12.5" height="12.5" rx="3" fill="#FFFFFF"/>
<rect x="190.75" y="246.75" width="12.5" height="12.5" rx="3" fill="#FFFFFF"/>
<rect x="372.75" y="246.75" width="12.5" height="12.5" rx="3" fill="#FFFFFF"/>
<rect x="400.75" y="246.75" width="12.5" height="12.5" rx="3" fill="#FFFFFF"/>
<rect x="414.75" y="246.75" width="12.5" height="12.5" rx="3" fill="#FFFFFF"/>
<rect x="442.75" y="246.75" width="12.5" height="12.5" rx="3" fill="#FFFFFF"/>
<rect x="470.75" y="246.75" width="12.5" height="12.5" rx="3" fill="#FFFFFF"/>
<rect x="498.75" y="246.75" width="12.5" height="12.5" rx="3" fill="#FFFFFF"/>
<rect x="64.75" y="260.75" width="12.5" height="12.5" rx="3" fill="#FFFFFF"/>
<rect x="78.75" y="260.75" width="12.5" height="12.5" rx="3" fill="#FFFFFF"/>
<rect x="106.75" y="260.75" width="12.5" height="12.5" rx="3" fill="#FFFFFF"/>
<rect x="148.75" y="260.75" width="12.5" height="12.5" rx="3" fill="#FFFFFF"/>
<rect x="176.75" y="260.75" width="12.5" height="12.5" rx="3" fill="#FFFFFF"/>
<rect x="190.75" y="260.75" width="12.5" height="12.5" rx="3" fill="#FFFFFF"/>
<rect x="204.75" y="260.75" width="12.5" height="12.5" rx="3" fill="#FFFFFF"/>
<rect x="358.75" y="260.75" width="12.5" height="12.5" rx="3" fill="#FFFFFF"/>
<rect x="372.75" y="260.75" width="12.5" height="12.5" rx="3" fill="#FFFFFF"/>
<rect x="386.75" y="260.75" width="12.5" height="12.5" rx="3" fill="#FFFFFF"/>
<rect x="400.75" y="260.75" width="12.5" height="12.5" rx="3" fill="#FFFFFF"/>
<rect x="484.75" y="260.75" width="12.5" height="12.5" rx="3" fill="#FFFFFF"/>
<rect x="498.75" y="260.75" width="12.5" height="12.5" rx="3" fill="#FFFFFF"/>
<rect x="78.75" y="274.75" width="12.5" height="12.5" rx="3" fill="#FFFFFF"/>
<rect x="92.75" y="274.75" width="12.5" height="12.5" rx="3" fill="#FFFFFF"/>
<rect x="120.75" y="274.75" width="12.5" height="12.5" rx="3" fill="#FFFFFF"/>
<rect x="134.75" y="274.75" width="12.5" height="12.5" rx="3" fill="#FFFFFF"/>
<rect x="148.75" y="274.75" width="12.5" height="12.5" rx="3" fill="#FFFFFF"/>
<rect x="162.75" y="274.75" width="12.5" height="12.5" rx="3" fill="#FFFFFF"/>
<rect x="176.75" y="274.75" width="12.5" height="12.5" rx="3" fill="#FFFFFF"/>
<rect x="218.75" y="274.75" width="12.5" height="12.5" rx="3" fill="#FFFFFF"/>
<rect x="358.75" y="274.75" width="12.5" height="12.5" rx="3" fill="#FFFFFF"/>
<rect x="414.75" y="274.75" width="12.5" height="12.5" rx="3" fill="#FFFFFF"/>
<rect x="428.75" y="274.75" width="12.5" height="12.5" rx="3" fill="#FFFFFF"/>
<rect x="456.75" y="274.75" width="12.5" height="12.5" rx="3" fill="#FFFFFF"/>
<rect x="470.75" y="274.75" width="12.5" height="12.5" rx="3" fill="#FFFFFF"/>
<rect x="484.75" y="274.75" width="12.5" height="12.5" rx="3" fill="#FFFFFF"/>
<rect x="78.75" y="288.75" width="12.5" height="12.5" rx="3" fill="#FFFFFF"/>
<rect x="92.75" y="288.75" width="12.5" height="12.5" rx="3" fill="#FFFFFF"/>
<rect x="148.75" y="288.75" width="12.5" height="12.5" rx="3" fill="#FFFFFF"/>
<rect x="204.75" y="288.75" width="12.5" height="12.5" rx="3" fill="#FFFFFF"/>
<rect x="344.75" y="288.75" width="12.5" height="12.5" rx="3" fill="#FFFFFF"/>
<rect x="372.75" y="288.75" width="12.5" height="12.5" rx="3" fill="#FFFFFF"/>
<rect x="400.75" y="288.75" width="12.5" height="12.5" rx="3" fill="#FFFFFF"/>
<rect x="414.75" y="288.75" width="12.5" height="12.5" rx="3" fill="#FFFFFF"/>
<rect x="428.75" y="288.75" width="12.5" height="12.5" rx="3" fill="#FFFFFF"/>
<rect x="470.75" y="288.75" width="12.5" height="12.5" rx="3" fill="#FFFFFF"/>
<rect x="498.75" y="288.75" width="12.5" height="12.5" rx="3" fill="#FFFFFF"/>
<rect x="64.75" y="302.75" width="12.5" height="12.5" rx="3" fill="#FFFFFF"/>
<rect x="92.75" y="302.75" width="12.5" height="12.5" rx="3" fill="#FFFFFF"/>
<rect x="106.75" y="302.75" width="12.5" height="12.5" rx="3" fill="#FFFFFF"/>
<rect x="134.75" y="302.75" width="12.5" height="12.5" rx="3" fill="#FFFFFF"/>
<rect x="148.75" y="302.75" width="12.5" height="12.5" rx="3" fill="#FFFFFF"/>
<rect x="344.75" y="302.75" width="12.5" height="12.5" rx="3" fill="#FFFFFF"/>
<rect x="372.75" y="302.75" width="12.5" height="12.5" rx="3" fill="#FFFFFF"/>
<rect x="442.75" y="302.75" width="12.5" height="12.5" rx="3" fill="#FFFFFF"/>
<rect x="456.75" y="302.75" width="12.5" height="12.5" rx="3" fill="#FFFFFF"/>
<rect x="470.75" y="302.75" width="12.5" height="12.5" rx="3" fill="#FFFFFF"/>
<rect x="498.75" y="302.75" width="12.5" height="12.5" rx="3" fill="#FFFFFF"/>
<rect x="64.75" y="316.75" width="12.5" height="12.5" rx="3" fill="#FFFFFF"/>
<rect x="78.75" y="316.75" width="12.5" height="12.5" rx="3" fill="#FFFFFF"/>
<rect x="92.75" y="316.75" width="12.5" height="12.5" rx="3" fill="#FFFFFF"/>
<rect x="162.75" y="316.75" width="12.5" height="12.5" rx="3" fill="#FFFFFF"/>
<rect x="176.75" y="316.75" width="12.5" height="12.5" rx="3" fill="#FFFFFF"/>
<rect x="372.75" y="316.75" width="12.5" height="12.5" rx="3" fill="#FFFFFF"/>
<rect x="414.75" y="316.75" width="12.5" height="12.5" rx="3" fill="#FFFFFF"/>
<rect x="428.75" y="316.75" width="12.5" height="12.5" rx="3" fill="#FFFFFF"/>
<rect x="456.75" y="316.75" width="12.5" height="12.5" rx="3" fill="#FFFFFF"/>
<rect x="484.75" y="316.75" width="12.5" height="12.5" rx="3" fill="#FFFFFF"/>
<rect x="498.75" y="316.75" width="12.5" height="12.5" rx="3" fill="#FFFFFF"/>
<rect x="50.75" y="330.75" width="12.5" height="12.5" rx="3" fill="#FFFFFF"/>
<rect x="64.75" y="330.75" width="12.5" height="12.5" rx="3" fill="#FFFFFF"/>
<rect x="78.75" y="330.75" width="12.5" height="12.5" rx="3" fill="#FFFFFF"/>
<rect x="106.75" y="330.75" width="12.5" height="12.5" rx="3" fill="#FFFFFF"/>
<rect x="134.75" y="330.75" width="12.5" height="12.5" rx="3" fill="#FFFFFF"/>
<rect x="176.75" y="330.75" width="12.5" height="12.5" rx="3" fill="#FFFFFF"/>
<rect x="204.75" y="330.75" width="12.5" height="12.5" rx="3" fill="#FFFFFF"/>
<rect x="218.75" y="330.75" width="12.5" height="12.5" rx="3" fill="#FFFFFF"/>
<rect x="372.75" y="330.75" width="12.5" height="12.5" rx="3" fill="#FFFFFF"/>
<rect x="428.75" y="330.75" width="12.5" height="12.5" rx="3" fill="#FFFFFF"/>
<rect x="106.75" y="344.75" width="12.5" height="12.5" rx="3" fill="#FFFFFF"/>
<rect x="120.75" y="344.75" width="12.5" height="12.5" rx="3" fill="#FFFFFF"/>
<rect x="148.75" y="344.75" width="12.5" height="12.5" rx="3" fill="#FFFFFF"/>
<rect x="176.75" y="344.75" width="12.5" height="12.5" rx="3" fill="#FFFFFF"/>
<rect x="204.75" y="344.75" width="12.5" height="12.5" rx="3" fill="#FFFFFF"/>
<rect x="232.75" y="344.75" width="12.5" height="12.5" rx="3" fill="#FFFFFF"/>
<rect x="260.75" y="344.75" width="12.5" height="12.5" rx="3" fill="#FFFFFF"/>
<rect x="302.75" y="344.75" width="12.5" height="12.5" rx="3" fill="#FFFFFF"/>
<rect x="316.75" y="344.75" width="12.5" height="12.5" rx="3" fill="#FFFFFF"/>
<rect x="330.75" y="344.75" width="12.5" height="12.5" rx="3" fill="#FFFFFF"/>
<rect x="456.75" y="344.75" width="12.5" height="12.5" rx="3" fill="#FFFFFF"/>
<rect x="498.75" y="344.75" width="12.5" height="12.5" rx="3" fill="#FFFFFF"/>
<rect x="50.75" y="358.75" width="12.5" height="12.5" rx="3" fill="#FFFFFF"/>
<rect x="64.75" y="358.75" width="12.5" height="12.5" rx="3" fill="#FFFFFF"/>
<rect x="78.75" y="358.75" width="12.5" height="12.5" rx="3" fill="#FFFFFF"/>
<rect x="92.75" y="358.75" width="12.5" height="12.5" rx="3" fill="#FFFFFF"/>
<rect x="106.75" y="358.75" width="12.5" height="12.5" rx="3" fill="#FFFFFF"/>
<rect x="120.75" y="358.75" width="12.5" height="12.5" rx="3" fill="#FFFFFF"/>
<rect x="134.75" y="358.75" width="12.5" height="12.5" rx="3" fill="#FFFFFF"/>
<rect x="204.75" y="358.75" width="12.5" height="12.5" rx="3" fill="#FFFFFF"/>
<rect x="232.75" y="358.75" width="12.5" height="12.5" rx="3" fill="#FFFFFF"/>
<rect x="246.75" y="358.75" width="12.5" height="12.5" rx="3" fill="#FFFFFF"/>
<rect x="274.75" y="358.75" width="12.5" height="12.5" rx="3" fill="#FFFFFF"/>
<rect x="288.75" y="358.75" width="12.5" height="12.5" rx="3" fill="#FFFFFF"/>
<rect x="316.75" y="358.75" width="12.5" height="12.5" rx="3" fill="#FFFFFF"/>
<rect x="330.75" y="358.75" width="12.5" height="12.5" rx="3" fill="#FFFFFF"/>
<rect x="358.75" y="358.75" width="12.5" height="12.5" rx="3" fill="#FFFFFF"/>
<rect x="372.75" y="358.75" width="12.5" height="12.5" rx="3" fill="#FFFFFF"/>
<rect x="400.75" y="358.75" width="12.5" height="12.5" rx="3" fill="#FFFFFF"/>
<rect x="414.75" y="358.75" width="12.5" height="12.5" rx="3" fill="#FFFFFF"/>
<rect x="498.75" y="358.75" width="12.5" height="12.5" rx="3" fill="#FFFFFF"/>
<rect x="78.75" y="372.75" width="12.5" height="12.5" rx="3" fill="#FFFFFF"/>
<rect x="92.75" y="372.75" width="12.5" height="12.5" rx="3" fill="#FFFFFF"/>
<rect x="120.75" y="372.75" width="12.5" height="12.5" rx="3" fill="#FFFFFF"/>
<rect x="148.75" y="372.75" width="12.5" height="12.5" rx="3" fill="#FFFFFF"/>
<rect x="176.75" y="372.75" width="12.5" height="12.5" rx="3" fill="#FFFFFF"/>
<rect x="190.75" y="372.75" width="12.5" height="12.5" rx="3" fill="#FFFFFF"/>
<rect x="246.75" y="372.75" width="12.5" height="12.5" rx="3" fill="#FFFFFF"/>
<rect x="260.75" y="372.75" width="12.5" height="12.5" rx="3" fill="#FFFFFF"/>
<rect x="288.75" y="372.75" width="12.5" height="12.5" rx="3" fill="#FFFFFF"/>
<rect x="358.75" y="372.75" width="12.5" height="12.5" rx="3" fill="#FFFFFF"/>
<rect x="428.75" y="372.75" width="12.5" height="12.5" rx="3" fill="#FFFFFF"/>
<rect x="456.75" y="372.75" width="12.5" height="12.5" rx="3" fill="#FFFFFF"/>
<rect x="50.75" y="386.75" width="12.5" height="12.5" rx="3" fill="#FFFFFF"/>
<rect x="64.75" y="386.75" width="12.5" height="12.5" rx="3" fill="#FFFFFF"/>
<rect x="120.75" y="386.75" width="12.5" height="12.5" rx="3" fill="#FFFFFF"/>
<rect x="134.75" y="386.75" width="12.5" height="12.5" rx="3" fill="#FFFFFF"/>
<rect x="162.75" y="386.75" width="12.5" height="12.5" rx="3" fill="#FFFFFF"/>
<rect x="176.75" y="386.75" width="12.5" height="12.5" rx="3" fill="#FFFFFF"/>
<rect x="232.75" y="386.75" width="12.5" height="12.5" rx="3" fill="#FFFFFF"/>
<rect x="246.75" y="386.75" width="12.5" height="12.5" rx="3" fill="#FFFFFF"/>
<rect x="274.75" y="386.75" width="12.5" height="12.5" rx="3" fill="#FFFFFF"/>
<rect x="288.75" y="386.75" width="12.5" height="12.5" rx="3" fill="#FFFFFF"/>
<rect x="302.75" y="386.75" width="12.5" height="12.5" rx="3" fill="#FFFFFF"/>
<rect x="316.75" y="386.75" width="12.5" height="12.5" rx="3" fill="#FFFFFF"/>
<rect x="372.75" y="386.75" width="12.5" height="12.5" rx="3" fill="#FFFFFF"/>
<rect x="386.75" y="386.75" width="12.5" height="12.5" rx="3" fill="url(#gld)"/>
<rect x="400.75" y="386.75" width="12.5" height="12.5" rx="3" fill="url(#gld)"/>
<rect x="414.75" y="386.75" width="12.5" height="12.5" rx="3" fill="url(#gld)"/>
<rect x="428.75" y="386.75" width="12.5" height="12.5" rx="3" fill="url(#gld)"/>
<rect x="442.75" y="386.75" width="12.5" height="12.5" rx="3" fill="url(#gld)"/>
<rect x="484.75" y="386.75" width="12.5" height="12.5" rx="3" fill="#FFFFFF"/>
<rect x="162.75" y="400.75" width="12.5" height="12.5" rx="3" fill="#FFFFFF"/>
<rect x="176.75" y="400.75" width="12.5" height="12.5" rx="3" fill="#FFFFFF"/>
<rect x="204.75" y="400.75" width="12.5" height="12.5" rx="3" fill="#FFFFFF"/>
<rect x="218.75" y="400.75" width="12.5" height="12.5" rx="3" fill="#FFFFFF"/>
<rect x="260.75" y="400.75" width="12.5" height="12.5" rx="3" fill="#FFFFFF"/>
<rect x="316.75" y="400.75" width="12.5" height="12.5" rx="3" fill="#FFFFFF"/>
<rect x="344.75" y="400.75" width="12.5" height="12.5" rx="3" fill="#FFFFFF"/>
<rect x="372.75" y="400.75" width="12.5" height="12.5" rx="3" fill="#FFFFFF"/>
<rect x="386.75" y="400.75" width="12.5" height="12.5" rx="3" fill="url(#gld)"/>
<rect x="442.75" y="400.75" width="12.5" height="12.5" rx="3" fill="url(#gld)"/>
<rect x="456.75" y="400.75" width="12.5" height="12.5" rx="3" fill="#FFFFFF"/>
<rect x="484.75" y="400.75" width="12.5" height="12.5" rx="3" fill="#FFFFFF"/>
<rect x="498.75" y="400.75" width="12.5" height="12.5" rx="3" fill="#FFFFFF"/>
<rect x="162.75" y="414.75" width="12.5" height="12.5" rx="3" fill="#FFFFFF"/>
<rect x="176.75" y="414.75" width="12.5" height="12.5" rx="3" fill="#FFFFFF"/>
<rect x="204.75" y="414.75" width="12.5" height="12.5" rx="3" fill="#FFFFFF"/>
<rect x="218.75" y="414.75" width="12.5" height="12.5" rx="3" fill="#FFFFFF"/>
<rect x="246.75" y="414.75" width="12.5" height="12.5" rx="3" fill="#FFFFFF"/>
<rect x="260.75" y="414.75" width="12.5" height="12.5" rx="3" fill="#FFFFFF"/>
<rect x="274.75" y="414.75" width="12.5" height="12.5" rx="3" fill="#FFFFFF"/>
<rect x="288.75" y="414.75" width="12.5" height="12.5" rx="3" fill="#FFFFFF"/>
<rect x="316.75" y="414.75" width="12.5" height="12.5" rx="3" fill="#FFFFFF"/>
<rect x="330.75" y="414.75" width="12.5" height="12.5" rx="3" fill="#FFFFFF"/>
<rect x="386.75" y="414.75" width="12.5" height="12.5" rx="3" fill="url(#gld)"/>
<rect x="414.75" y="414.75" width="12.5" height="12.5" rx="3" fill="url(#gld)"/>
<rect x="442.75" y="414.75" width="12.5" height="12.5" rx="3" fill="url(#gld)"/>
<rect x="456.75" y="414.75" width="12.5" height="12.5" rx="3" fill="#FFFFFF"/>
<rect x="498.75" y="414.75" width="12.5" height="12.5" rx="3" fill="#FFFFFF"/>
<rect x="162.75" y="428.75" width="12.5" height="12.5" rx="3" fill="#FFFFFF"/>
<rect x="190.75" y="428.75" width="12.5" height="12.5" rx="3" fill="#FFFFFF"/>
<rect x="204.75" y="428.75" width="12.5" height="12.5" rx="3" fill="#FFFFFF"/>
<rect x="218.75" y="428.75" width="12.5" height="12.5" rx="3" fill="#FFFFFF"/>
<rect x="232.75" y="428.75" width="12.5" height="12.5" rx="3" fill="#FFFFFF"/>
<rect x="246.75" y="428.75" width="12.5" height="12.5" rx="3" fill="#FFFFFF"/>
<rect x="288.75" y="428.75" width="12.5" height="12.5" rx="3" fill="#FFFFFF"/>
<rect x="302.75" y="428.75" width="12.5" height="12.5" rx="3" fill="#FFFFFF"/>
<rect x="344.75" y="428.75" width="12.5" height="12.5" rx="3" fill="#FFFFFF"/>
<rect x="372.75" y="428.75" width="12.5" height="12.5" rx="3" fill="#FFFFFF"/>
<rect x="386.75" y="428.75" width="12.5" height="12.5" rx="3" fill="url(#gld)"/>
<rect x="442.75" y="428.75" width="12.5" height="12.5" rx="3" fill="url(#gld)"/>
<rect x="456.75" y="428.75" width="12.5" height="12.5" rx="3" fill="#FFFFFF"/>
<rect x="484.75" y="428.75" width="12.5" height="12.5" rx="3" fill="#FFFFFF"/>
<rect x="498.75" y="428.75" width="12.5" height="12.5" rx="3" fill="#FFFFFF"/>
<rect x="176.75" y="442.75" width="12.5" height="12.5" rx="3" fill="#FFFFFF"/>
<rect x="190.75" y="442.75" width="12.5" height="12.5" rx="3" fill="#FFFFFF"/>
<rect x="204.75" y="442.75" width="12.5" height="12.5" rx="3" fill="#FFFFFF"/>
<rect x="274.75" y="442.75" width="12.5" height="12.5" rx="3" fill="#FFFFFF"/>
<rect x="288.75" y="442.75" width="12.5" height="12.5" rx="3" fill="#FFFFFF"/>
<rect x="316.75" y="442.75" width="12.5" height="12.5" rx="3" fill="#FFFFFF"/>
<rect x="344.75" y="442.75" width="12.5" height="12.5" rx="3" fill="#FFFFFF"/>
<rect x="372.75" y="442.75" width="12.5" height="12.5" rx="3" fill="#FFFFFF"/>
<rect x="386.75" y="442.75" width="12.5" height="12.5" rx="3" fill="url(#gld)"/>
<rect x="400.75" y="442.75" width="12.5" height="12.5" rx="3" fill="url(#gld)"/>
<rect x="414.75" y="442.75" width="12.5" height="12.5" rx="3" fill="url(#gld)"/>
<rect x="428.75" y="442.75" width="12.5" height="12.5" rx="3" fill="url(#gld)"/>
<rect x="442.75" y="442.75" width="12.5" height="12.5" rx="3" fill="url(#gld)"/>
<rect x="456.75" y="442.75" width="12.5" height="12.5" rx="3" fill="#FFFFFF"/>
<rect x="176.75" y="456.75" width="12.5" height="12.5" rx="3" fill="#FFFFFF"/>
<rect x="218.75" y="456.75" width="12.5" height="12.5" rx="3" fill="#FFFFFF"/>
<rect x="260.75" y="456.75" width="12.5" height="12.5" rx="3" fill="#FFFFFF"/>
<rect x="302.75" y="456.75" width="12.5" height="12.5" rx="3" fill="#FFFFFF"/>
<rect x="316.75" y="456.75" width="12.5" height="12.5" rx="3" fill="#FFFFFF"/>
<rect x="344.75" y="456.75" width="12.5" height="12.5" rx="3" fill="#FFFFFF"/>
<rect x="400.75" y="456.75" width="12.5" height="12.5" rx="3" fill="#FFFFFF"/>
<rect x="428.75" y="456.75" width="12.5" height="12.5" rx="3" fill="#FFFFFF"/>
<rect x="442.75" y="456.75" width="12.5" height="12.5" rx="3" fill="#FFFFFF"/>
<rect x="456.75" y="456.75" width="12.5" height="12.5" rx="3" fill="#FFFFFF"/>
<rect x="470.75" y="456.75" width="12.5" height="12.5" rx="3" fill="#FFFFFF"/>
<rect x="484.75" y="456.75" width="12.5" height="12.5" rx="3" fill="#FFFFFF"/>
<rect x="162.75" y="470.75" width="12.5" height="12.5" rx="3" fill="#FFFFFF"/>
<rect x="190.75" y="470.75" width="12.5" height="12.5" rx="3" fill="#FFFFFF"/>
<rect x="204.75" y="470.75" width="12.5" height="12.5" rx="3" fill="#FFFFFF"/>
<rect x="246.75" y="470.75" width="12.5" height="12.5" rx="3" fill="#FFFFFF"/>
<rect x="260.75" y="470.75" width="12.5" height="12.5" rx="3" fill="#FFFFFF"/>
<rect x="274.75" y="470.75" width="12.5" height="12.5" rx="3" fill="#FFFFFF"/>
<rect x="288.75" y="470.75" width="12.5" height="12.5" rx="3" fill="#FFFFFF"/>
<rect x="316.75" y="470.75" width="12.5" height="12.5" rx="3" fill="#FFFFFF"/>
<rect x="330.75" y="470.75" width="12.5" height="12.5" rx="3" fill="#FFFFFF"/>
<rect x="372.75" y="470.75" width="12.5" height="12.5" rx="3" fill="#FFFFFF"/>
<rect x="386.75" y="470.75" width="12.5" height="12.5" rx="3" fill="#FFFFFF"/>
<rect x="442.75" y="470.75" width="12.5" height="12.5" rx="3" fill="#FFFFFF"/>
<rect x="456.75" y="470.75" width="12.5" height="12.5" rx="3" fill="#FFFFFF"/>
<rect x="484.75" y="470.75" width="12.5" height="12.5" rx="3" fill="#FFFFFF"/>
<rect x="498.75" y="470.75" width="12.5" height="12.5" rx="3" fill="#FFFFFF"/>
<rect x="176.75" y="484.75" width="12.5" height="12.5" rx="3" fill="#FFFFFF"/>
<rect x="218.75" y="484.75" width="12.5" height="12.5" rx="3" fill="#FFFFFF"/>
<rect x="288.75" y="484.75" width="12.5" height="12.5" rx="3" fill="#FFFFFF"/>
<rect x="330.75" y="484.75" width="12.5" height="12.5" rx="3" fill="#FFFFFF"/>
<rect x="358.75" y="484.75" width="12.5" height="12.5" rx="3" fill="#FFFFFF"/>
<rect x="386.75" y="484.75" width="12.5" height="12.5" rx="3" fill="#FFFFFF"/>
<rect x="456.75" y="484.75" width="12.5" height="12.5" rx="3" fill="#FFFFFF"/>
<rect x="470.75" y="484.75" width="12.5" height="12.5" rx="3" fill="#FFFFFF"/>
<rect x="176.75" y="498.75" width="12.5" height="12.5" rx="3" fill="#FFFFFF"/>
<rect x="190.75" y="498.75" width="12.5" height="12.5" rx="3" fill="#FFFFFF"/>
<rect x="204.75" y="498.75" width="12.5" height="12.5" rx="3" fill="#FFFFFF"/>
<rect x="218.75" y="498.75" width="12.5" height="12.5" rx="3" fill="#FFFFFF"/>
<rect x="232.75" y="498.75" width="12.5" height="12.5" rx="3" fill="#FFFFFF"/>
<rect x="260.75" y="498.75" width="12.5" height="12.5" rx="3" fill="#FFFFFF"/>
<rect x="288.75" y="498.75" width="12.5" height="12.5" rx="3" fill="#FFFFFF"/>
<rect x="316.75" y="498.75" width="12.5" height="12.5" rx="3" fill="#FFFFFF"/>
<rect x="386.75" y="498.75" width="12.5" height="12.5" rx="3" fill="#FFFFFF"/>
<rect x="400.75" y="498.75" width="12.5" height="12.5" rx="3" fill="#FFFFFF"/>
<rect x="414.75" y="498.75" width="12.5" height="12.5" rx="3" fill="#FFFFFF"/>
<rect x="442.75" y="498.75" width="12.5" height="12.5" rx="3" fill="#FFFFFF"/>
<rect x="456.75" y="498.75" width="12.5" height="12.5" rx="3" fill="#FFFFFF"/>
<rect x="470.75" y="498.75" width="12.5" height="12.5" rx="3" fill="#FFFFFF"/>
<rect x="498.75" y="498.75" width="12.5" height="12.5" rx="3" fill="#FFFFFF"/>
<circle cx="281.0" cy="281.0" r="53.199999999999996" fill="#0D1B2A"/>
<circle cx="281.0" cy="281.0" r="50.699999999999996" fill="none" stroke="url(#gld)" stroke-width="2" stroke-opacity="0.7"/>
<rect x="255.065" y="258.0086225" width="51.87" height="9.336599999999999" rx="4.6682999999999995" fill="url(#gld)"/>
<rect x="260.7707" y="273.41401249999996" width="40.4586" height="9.336599999999999" rx="3.9213719999999994" fill="url(#gld)"/>
<rect x="266.3035" y="288.8194024999999" width="29.392999999999997" height="9.336599999999999" rx="3.5479079999999996" fill="url(#gld)"/>
<circle cx="281.0" cy="299.3230774999999" r="4.6682999999999995" fill="url(#gld)"/>
<text x="281.0" y="548" text-anchor="middle" font-family="-apple-system, SF Pro Display, sans-serif" font-size="11" font-weight="600" letter-spacing="2" fill="#DEA752" opacity="0.55">POOLHIVEAPP.COM</text>
</svg>