<svg width="48" height="40" viewBox="0 0 48 40" fill="none" xmlns="http://www.w3.org/2000/svg">
<path d="M22 17.5V11M22 17.5C22.2652 17.5 22.5196 17.6054 22.7071 17.7929C22.8946 17.9804 23 18.2348 23 18.5C23 18.7652 22.8946 19.0196 22.7071 19.2071C22.5196 19.3946 22.2652 19.5 22 19.5M22 17.5C21.7348 17.5 21.4804 17.6054 21.2929 17.7929C21.1054 17.9804 21 18.2348 21 18.5C21 18.7652 21.1054 19.0196 21.2929 19.2071C21.4804 19.3946 21.7348 19.5 22 19.5M22 19.5V22M30 17.5V11M30 17.5C30.2652 17.5 30.5196 17.6054 30.7071 17.7929C30.8946 17.9804 31 18.2348 31 18.5C31 18.7652 30.8946 19.0196 30.7071 19.2071C30.5196 19.3946 30.2652 19.5 30 19.5M30 17.5C29.7348 17.5 29.4804 17.6054 29.2929 17.7929C29.1054 17.9804 29 18.2348 29 18.5C29 18.7652 29.1054 19.0196 29.2929 19.2071C29.4804 19.3946 29.7348 19.5 30 19.5M30 19.5V22M26 13.5V11M26 13.5C26.2652 13.5 26.5196 13.6054 26.7071 13.7929C26.8946 13.9804 27 14.2348 27 14.5C27 14.7652 26.8946 15.0196 26.7071 15.2071C26.5196 15.3946 26.2652 15.5 26 15.5M26 13.5C25.7348 13.5 25.4804 13.6054 25.2929 13.7929C25.1054 13.9804 25 14.2348 25 14.5C25 14.7652 25.1054 15.0196 25.2929 15.2071C25.4804 15.3946 25.7348 15.5 26 15.5M26 15.5V22" stroke="white" stroke-width="1.5" stroke-linecap="round" stroke-linejoin="round"/>
</svg>
