<svg width="24" height="23" viewBox="0 0 24 23" fill="none" xmlns="http://www.w3.org/2000/svg">
<path d="M8.11129 8.80851C8.11129 8.92701 8.06577 9.04066 7.98474 9.12445C7.90371 9.20825 7.79381 9.25532 7.67921 9.25532C7.56462 9.25532 7.45472 9.20825 7.37369 9.12445C7.29266 9.04066 7.24714 8.92701 7.24714 8.80851C7.24714 8.69001 7.29266 8.57636 7.37369 8.49257C7.45472 8.40878 7.56462 8.3617 7.67921 8.3617C7.79381 8.3617 7.90371 8.40878 7.98474 8.49257C8.06577 8.57636 8.11129 8.69001 8.11129 8.80851ZM8.11129 8.80851H7.67921M12.4321 8.80851C12.4321 8.92701 12.3866 9.04066 12.3055 9.12445C12.2245 9.20825 12.1146 9.25532 12 9.25532C11.8854 9.25532 11.7755 9.20825 11.6945 9.12445C11.6134 9.04066 11.5679 8.92701 11.5679 8.80851C11.5679 8.69001 11.6134 8.57636 11.6945 8.49257C11.7755 8.40878 11.8854 8.3617 12 8.3617C12.1146 8.3617 12.2245 8.40878 12.3055 8.49257C12.3866 8.57636 12.4321 8.69001 12.4321 8.80851ZM12.4321 8.80851H12M16.7529 8.80851C16.7529 8.92701 16.7073 9.04066 16.6263 9.12445C16.5453 9.20825 16.4354 9.25532 16.3208 9.25532C16.2062 9.25532 16.0963 9.20825 16.0153 9.12445C15.9342 9.04066 15.8887 8.92701 15.8887 8.80851C15.8887 8.69001 15.9342 8.57636 16.0153 8.49257C16.0963 8.40878 16.2062 8.3617 16.3208 8.3617C16.4354 8.3617 16.5453 8.40878 16.6263 8.49257C16.7073 8.57636 16.7529 8.69001 16.7529 8.80851ZM16.7529 8.80851H16.3208M0.765957 12.3949C0.765957 14.3013 2.05989 15.9622 3.88499 16.2398C5.13744 16.4305 6.40257 16.577 7.67921 16.6795V22.2128L12.5001 17.2288C12.7388 16.9829 13.0597 16.8413 13.3965 16.8332C15.6451 16.776 17.8884 16.5778 20.1139 16.2398C21.9401 15.9622 23.234 14.3025 23.234 12.3937V5.22332C23.234 3.31456 21.9401 1.65481 20.115 1.37719C17.428 0.969364 14.7158 0.765075 12 0.76596C9.24392 0.76596 6.53392 0.974471 3.88499 1.37719C2.05989 1.65481 0.765957 3.31575 0.765957 5.22332V12.3937V12.3949Z" stroke="white" stroke-width="1.5" stroke-linecap="round" stroke-linejoin="round"/>
</svg>
