<svg width="20" height="22" viewBox="0 0 20 22" fill="none" xmlns="http://www.w3.org/2000/svg">
<path d="M16.1163 21.2326C17.8117 21.2326 19.186 19.8582 19.186 18.1628C19.186 16.4674 17.8117 15.093 16.1163 15.093C14.4208 15.093 13.0465 16.4674 13.0465 18.1628C13.0465 19.8582 14.4208 21.2326 16.1163 21.2326Z" stroke="white" stroke-width="1.5" stroke-linecap="round" stroke-linejoin="round"/>
<path d="M16.1163 6.90698C17.8117 6.90698 19.186 5.53259 19.186 3.83721C19.186 2.14183 17.8117 0.767442 16.1163 0.767442C14.4208 0.767442 13.0465 2.14183 13.0465 3.83721C13.0465 5.53259 14.4208 6.90698 16.1163 6.90698Z" stroke="white" stroke-width="1.5" stroke-linecap="round" stroke-linejoin="round"/>
<path d="M3.83721 14.0698C5.53259 14.0698 6.90698 12.6954 6.90698 11C6.90698 9.30457 5.53259 7.93023 3.83721 7.93023C2.14183 7.93023 0.767442 9.30457 0.767442 11C0.767442 12.6954 2.14183 14.0698 3.83721 14.0698Z" stroke="white" stroke-width="1.5" stroke-linecap="round" stroke-linejoin="round"/>
<path d="M13.5581 5.37209L6.39535 9.46512" stroke="white" stroke-width="1.5"/>
<path d="M6.39535 12.5349L13.5581 16.6279" stroke="white" stroke-width="1.5"/>
</svg>
