<svg width="22" height="23" viewBox="0 0 22 23" fill="none" xmlns="http://www.w3.org/2000/svg">
<path d="M10.137 10.6056L10.1836 10.5817C10.3292 10.5053 10.4927 10.4743 10.6546 10.4924C10.8165 10.5106 10.97 10.577 11.0971 10.6839C11.2241 10.7908 11.3193 10.9337 11.3714 11.0957C11.4235 11.2577 11.4303 11.4319 11.391 11.5978L10.5868 14.98C10.5472 15.146 10.5538 15.3204 10.6058 15.4825C10.6577 15.6447 10.7529 15.7878 10.88 15.8949C11.0071 16.002 11.1608 16.0685 11.3228 16.0867C11.4848 16.1048 11.6484 16.0738 11.7942 15.9973L11.8407 15.9722M21.2111 11.5C21.2111 12.9095 20.9467 14.3052 20.433 15.6075C19.9193 16.9097 19.1663 18.0929 18.2171 19.0896C17.2679 20.0863 16.141 20.8769 14.9008 21.4163C13.6605 21.9557 12.3313 22.2333 10.9889 22.2333C9.64649 22.2333 8.31723 21.9557 7.07701 21.4163C5.8368 20.8769 4.70991 20.0863 3.76069 19.0896C2.81147 18.0929 2.0585 16.9097 1.54479 15.6075C1.03107 14.3052 0.766667 12.9095 0.766667 11.5C0.766667 8.65334 1.84365 5.92328 3.76069 3.91039C5.67772 1.8975 8.27779 0.766667 10.9889 0.766667C13.7 0.766667 16.3001 1.8975 18.2171 3.91039C20.1341 5.92328 21.2111 8.65334 21.2111 11.5ZM10.9889 7.02778H10.998V7.03732H10.9889V7.02778Z" stroke="white" stroke-width="1.5" stroke-linecap="round" stroke-linejoin="round"/>
</svg>
