<svg width="27" height="27" viewBox="0 0 27 27" fill="none" xmlns="http://www.w3.org/2000/svg">
<path d="M11.0426 3.03758C8.99123 3.03758 6.93994 3.81797 5.379 5.37891C2.25713 8.50078 2.25713 13.5842 5.379 16.7061C6.93994 18.267 8.98612 19.0478 11.0533 19.0478C13.1205 19.0478 15.1667 18.267 16.7276 16.7061C19.8284 13.5842 19.8281 8.50078 16.7062 5.37891C15.1452 3.81797 13.094 3.03758 11.0426 3.03758ZM11.0323 4.2822C12.762 4.2822 14.4916 4.93577 15.7994 6.26468C18.4361 8.9014 18.436 13.1836 15.8204 15.8203C13.1837 18.457 8.9015 18.457 6.26478 15.8203C3.62806 13.1836 3.62806 8.9014 6.26478 6.26468C7.57259 4.95687 9.30261 4.2822 11.0323 4.2822ZM11.0323 5.54782C9.57682 5.54782 8.20557 6.11719 7.17197 7.17188C6.18057 8.16328 5.63221 9.45008 5.56893 10.8423C5.54784 11.2009 5.82214 11.475 6.18073 11.4961H6.20174C6.53924 11.4961 6.81346 11.2218 6.83456 10.8843C6.87674 9.80851 7.31946 8.81702 8.05775 8.05765C8.85931 7.25609 9.91432 6.81345 11.0323 6.81345C11.3909 6.81345 11.6651 6.53923 11.6651 6.18063C11.6651 5.82204 11.3909 5.54782 11.0323 5.54782ZM7.38291 13.5C7.21508 13.5 7.05412 13.5667 6.93544 13.6853C6.81677 13.804 6.7501 13.965 6.7501 14.1328C6.7501 14.3006 6.81677 14.4616 6.93544 14.5803C7.05412 14.699 7.21508 14.7656 7.38291 14.7656C7.55074 14.7656 7.7117 14.699 7.83038 14.5803C7.94905 14.4616 8.01572 14.3006 8.01572 14.1328C8.01572 13.965 7.94905 13.804 7.83038 13.6853C7.7117 13.5667 7.55074 13.5 7.38291 13.5ZM17.5845 16.9805C17.4237 16.9805 17.2655 17.0438 17.1495 17.1704C16.8964 17.4235 16.8964 17.8241 17.1495 18.0562L17.6768 18.5835C17.5503 18.8366 17.4869 19.1109 17.4869 19.4062C17.4869 19.9125 17.6767 20.3977 18.0353 20.7563L20.7354 23.4141C21.1151 23.7938 21.5999 23.9834 22.0851 23.9834C22.5702 23.9834 23.0555 23.7937 23.4352 23.4351C24.1735 22.6968 24.1735 21.4946 23.4352 20.7563L20.7354 18.0562C20.3768 17.6976 19.8916 17.5078 19.3853 17.5078C19.09 17.5078 18.8157 17.5712 18.5626 17.6977L18.0353 17.1704C17.9087 17.0438 17.7454 16.9805 17.5845 16.9805ZM19.3853 18.7524C19.5541 18.7524 19.7228 18.8158 19.8282 18.9424L22.507 21.6211C22.7601 21.8742 22.7601 22.2748 22.507 22.5069C22.2538 22.76 21.8532 22.76 21.6212 22.5069L18.9424 19.8491C18.8159 19.7226 18.7525 19.554 18.7525 19.3852C18.7525 19.2165 18.8159 19.0478 18.9424 18.9424C19.069 18.8158 19.2166 18.7524 19.3853 18.7524Z" fill="white"/>
</svg>
