<svg width="58" height="49" viewBox="0 0 58 49" fill="none" xmlns="http://www.w3.org/2000/svg">
<path d="M16.8164 0.5H41.2568C42.5021 0.5 43.6542 1.16148 44.2812 2.2373L49.8018 11.709L49.8057 11.7148L56.3926 22.6729C57.066 23.7935 57.0582 25.196 56.373 26.3096L49.8086 36.9775L49.7988 36.9932L44.2705 46.7285C43.6487 47.8234 42.4867 48.4999 41.2275 48.5H16.8467C15.5875 48.4999 14.4256 47.8234 13.8037 46.7285L8.27441 36.9932L8.27051 36.9854L8.26562 36.9775L1.70117 26.3096C1.01598 25.196 1.0082 23.7936 1.68164 22.6729L8.26855 11.7148L8.27148 11.709L13.793 2.2373C14.42 1.16165 15.5714 0.500164 16.8164 0.5Z" stroke="white"/>
<path d="M16.8164 0.5H41.2568C42.5021 0.5 43.6542 1.16148 44.2812 2.2373L49.8018 11.709L49.8057 11.7148L56.3926 22.6729C57.066 23.7935 57.0582 25.196 56.373 26.3096L49.8086 36.9775L49.7988 36.9932L44.2705 46.7285C43.6487 47.8234 42.4867 48.4999 41.2275 48.5H16.8467C15.5875 48.4999 14.4256 47.8234 13.8037 46.7285L8.27441 36.9932L8.27051 36.9854L8.26562 36.9775L1.70117 26.3096C1.01598 25.196 1.0082 23.7936 1.68164 22.6729L8.26855 11.7148L8.27148 11.709L13.793 2.2373C14.42 1.16165 15.5714 0.500164 16.8164 0.5Z" stroke="black" stroke-opacity="0.2"/>
<path d="M29 16.5V31.5M36.5 24H21.5" stroke="white" stroke-width="1.5" stroke-linecap="round" stroke-linejoin="round"/>
</svg>
