<svg width="24" height="24" viewBox="0 0 24 24" fill="none" xmlns="http://www.w3.org/2000/svg">
<path fill-rule="evenodd" clip-rule="evenodd" d="M5.481 3.06431C4.69222 3.27683 4.16784 3.96158 4.17249 4.77297C4.17629 5.43452 4.53971 6.02859 5.11973 6.32145L5.30662 6.41579V7.1972V7.97862L5.10409 8.15489C4.14002 8.99391 3.56985 9.87719 3.23543 11.0496C3.09669 11.536 3.05872 11.7525 3.01741 12.2925C2.93739 13.3391 3.13438 14.5414 3.58514 15.7572C3.79228 16.316 4.35335 17.4683 4.69915 18.0453C5.05905 18.6456 5.46941 19.2494 5.97501 19.9225C6.51594 20.6425 6.72913 20.8837 6.88066 20.9469C7.0506 21.0177 16.9467 21.0177 17.1167 20.9469C17.2682 20.8837 17.4814 20.6425 18.0223 19.9225C20.3854 16.7769 21.3441 13.9809 20.8908 11.5568C20.6508 10.2733 19.9485 9.06548 18.9285 8.18231L18.6555 7.94596L18.6556 7.1855L18.6557 6.425L18.8846 6.3069C19.4723 6.00363 19.8311 5.40538 19.8255 4.73786C19.82 4.06994 19.4596 3.49099 18.8608 3.18818C18.4693 2.99022 18.7849 2.99883 11.9811 3.00055C6.09906 3.00206 5.6974 3.006 5.481 3.06431ZM18.2053 4.19455C18.3613 4.23778 18.5326 4.37409 18.6039 4.51177C18.7274 4.75019 18.6179 5.10724 18.3751 5.258L18.2504 5.33537H11.9987H5.74688L5.62227 5.258C5.29936 5.05758 5.25157 4.59332 5.52766 4.3394C5.73096 4.15244 5.42204 4.16105 11.9811 4.15958C16.0685 4.1587 18.1174 4.17019 18.2053 4.19455ZM7.66644 8.61707C7.66644 9.77434 7.68124 10.7991 7.6993 10.8942C7.85748 11.7265 8.51545 12.3199 9.33945 12.3733C10.1591 12.4264 10.8967 11.9106 11.1318 11.1199C11.1775 10.966 11.1887 10.7511 11.1894 10.0127C11.1899 9.50871 11.2047 9.03433 11.2223 8.95848C11.2589 8.80112 11.3434 8.67598 11.4839 8.57131C11.6277 8.46417 11.9746 8.4692 12.1313 8.58069C12.372 8.75201 12.3664 8.7099 12.388 10.5199C12.4024 11.726 12.4196 12.1912 12.4537 12.295C12.6114 12.7764 12.9363 13.1517 13.3935 13.3809C13.9141 13.6419 14.6103 13.5962 15.1195 13.2678C15.4807 13.0348 15.7154 12.7096 15.8362 12.2745C15.9059 12.0235 15.9082 11.9271 15.9082 9.26404V6.51288H16.6831H17.458L17.4591 7.13678C17.4613 8.33813 17.5064 8.46024 18.1836 9.09785C18.8419 9.71768 19.1649 10.1615 19.4518 10.8404C19.9133 11.9325 19.9365 13.3385 19.5158 14.7276C19.0744 16.1853 18.2384 17.7128 16.9902 19.3425L16.6267 19.817H11.9987H7.37065L7.00717 19.3425C5.51847 17.3989 4.58979 15.5475 4.27749 13.9005C4.21384 13.5649 4.19947 13.362 4.19862 12.7871C4.1975 12.0047 4.24138 11.6961 4.43355 11.1351C4.69845 10.3616 5.0053 9.8994 5.72867 9.18425C6.32004 8.5996 6.41077 8.46779 6.4699 8.1074C6.4885 7.99405 6.50382 7.58891 6.50393 7.20708L6.50414 6.51288H7.08529H7.66644V8.61707ZM14.7283 9.25455C14.7283 11.8402 14.725 11.9841 14.6633 12.0857C14.4883 12.374 14.0757 12.4625 13.8186 12.2668C13.5593 12.0695 13.5681 12.1335 13.5477 10.2915C13.5301 8.70551 13.5264 8.63201 13.4538 8.4538C13.16 7.73225 12.5418 7.31302 11.7766 7.31657C11.1044 7.31963 10.5015 7.70772 10.2182 8.31981C10.0567 8.66857 10.0278 8.90685 10.027 9.89715C10.0262 10.8107 10.0141 10.8798 9.82315 11.0588C9.70505 11.1696 9.47597 11.2356 9.32963 11.2011C9.19867 11.1703 9.01281 11.0267 8.93156 10.8937C8.86724 10.7885 8.86421 10.6885 8.86411 8.64801L8.86397 6.51249L11.7961 6.52145L14.7283 6.53045V9.25455Z" fill="white"/>
</svg>
